<svg xmlns="http://www.w3.org/2000/svg"><symbol id="micropachycephalosaurus" viewBox="0 0 256 256"><path d="M131.9 150.9c-.3 0-.4.2-.4.6h-.1a.5.5 0 0 0-.5.5c0 .4.2.6.5.6s.4-.2.4-.6h.1a.5.5 0 0 0 .5-.5c0-.4-.2-.6-.5-.6zm1.5-.8a2.4 2.4 0 0 0-.9.8h.3a2.3 2.3 0 0 0 1.1-.3 2.4 2.4 0 0 0 .9-.8h-.3a2 2 0 0 0-1.1.3zm3-2.6c-.3 0-.4.2-.4.6h-.1a.5.5 0 0 0-.5.5h-.1c-.3 0-.5.2-.5.6s.2.6.5.6.5-.2.5-.6h.1c.3 0 .4-.2.4-.6h.1c.4 0 .5-.1.5-.5s-.1-.6-.5-.6zm23.3-5.9a8.7 8.7 0 0 1-1.2 1.4 2 2 0 0 0 .8 1.1h1.1a2.3 2.3 0 0 0 1.4-.4 6.9 6.9 0 0 0 1.1-1.3l.8-1.4c.2-.6.3-1.2.5-1.2h-3.5c-.2.1-.5 1.2-1 1.8z"/><path d="M127.3 0A127.7 127.7 0 1 0 255 127.7 127.6 127.6 0 0 0 127.3 0zm95.8 75.7a4.2 4.2 0 0 1-1.6.4h-3.7l-5.2 1.2a18.6 18.6 0 0 0-3.7 1.6 10.7 10.7 0 0 0-2.5 2.2 10.9 10.9 0 0 0-1.8 3 40.4 40.4 0 0 0-1.5 3.9l-1.6 5.1-1.2 3.4c-.4 1.1-.9 2.2-1.3 3.2a22 22 0 0 1-1.5 3.1c-.5 1.1-1.1 2.2-1.7 3.3a29 29 0 0 1-2.7 4.1c-.9 1.2-1.9 2.5-3 3.7l-3.1 3.5c-1 1.2-2.1 2.5-3.1 3.9a11.6 11.6 0 0 0-1.4 2.7 18.6 18.6 0 0 1-1 2.5 7.6 7.6 0 0 1-1.3 2.3 6.7 6.7 0 0 1-2.5 1.6l-1.3.5-2.1.7-2 .6-1.4.4a3.3 3.3 0 0 1 .2 2.1 2 2 0 0 1-.9.9l-1.2.6a2 2 0 0 0-.9.9l-2.3 6.8a2.5 2.5 0 0 1-1 1.5 6.1 6.1 0 0 1-1.8.9 13.6 13.6 0 0 1-2 .2l-1.9-.2h-.8c-.5 0-.9.2-1.2.1s-.4-.3-.4-.9v-.3c.1-.2.2-.2.3-.3l.2-.3c.1-.1.1-.2.1-.4v-.2a28.1 28.1 0 0 0-3.5 1.7l-3.4 2-3.3 2.2a23.3 23.3 0 0 1-3.4 2l-.9.5-1.1.5-1 .8a1.6 1.6 0 0 0-.5 1.1v.5l1.8 1.7 1.9 1.7 2.1 1.6 2.1 1.3 1.8.6 2 .6 1.9.6 1.7.9a9.3 9.3 0 0 1 1.3 1.5l1.1 1.5a17.1 17.1 0 0 0 1.1 1.4 4.7 4.7 0 0 0 1.5 1.3 3.8 3.8 0 0 0 1.7.6l2.1.7a5.2 5.2 0 0 1 1.8 1 2.1 2.1 0 0 1 .8 1.7.4.4 0 0 0-.1.3v.2l-5.6 1.2a3.5 3.5 0 0 0-1.1.3 2.1 2.1 0 0 1-1.2.3h-.5l-1.2-.7-1.7-1-1.7-1-1.1-.7-.2-.3-.3-.5-.3-.5-.3-.5-2.2-4.5-1.2-.4-1.8-.8-2.2-.9-2.1-1-1.8-.8-1.1-.6-2.8-1.6a13.8 13.8 0 0 1-2.6-2.2 13.9 13.9 0 0 1-2.1-2.7 8.1 8.1 0 0 1-1-3.1l-.6.2-.6.4-.8.6-1.7 1.3-2.1 1.4-2.1 1.4-1.8 1.1-.9.5-6 3.5a24.2 24.2 0 0 0-4.6 3.5 15.4 15.4 0 0 0-3.6 4.4c-.9 1.8-.8 4-2.4 6.7v.6c-.1.2 0 .4 0 .5v.5a10.5 10.5 0 0 0 1.1 4.4 8.5 8.5 0 0 0 4.8 4l2.6 1a4.4 4.4 0 0 1 1.9 1 4.5 4.5 0 0 1 .9 2h-13.4l-.2-.4c-.1-.2-.2-.1-.4-.2h-.5l-.6-.4a2.6 2.6 0 0 1-1.2-1.5 7.9 7.9 0 0 1-.5-2.2 9 9 0 0 1 .2-2.3c0-.8.3-1.5.3-2.1v-1.5a6.6 6.6 0 0 1 .2-1.7 18.1 18.1 0 0 0 .6-2.7c.3-1 .5-2.1.8-3.2s.5-2.2.8-3.2.5-1.9.7-2.6l.4-1.8a9.3 9.3 0 0 1 .7-2 8.2 8.2 0 0 1 .9-1.9 15.4 15.4 0 0 0 4.6-2.6 32.7 32.7 0 0 0 3.2-3.3l3-3.5a17 17 0 0 1 3.4-3.1l1.5-.7 2-.8 2.3-.9 2.2-1.2a7 7 0 0 0 1.6-1.3 2.5 2.5 0 0 0 .6-1.6v-1.3a1.7 1.7 0 0 0-.6-1.2l-.8-.3-1.2-.5-1.2-.6-.8-.3a7.3 7.3 0 0 1-2-1.3l-2.7-1.8a25.6 25.6 0 0 0-2.5-1.6 3.4 3.4 0 0 0-1.8-.6h-7.9c-6 0-11.9-.1-17.7.1s-11.8.2-17.8.2q-6.6 0-12.9-.3c-4.2-.3-8.4-.7-12.5-1.4a84.2 84.2 0 0 1-12-3 67.1 67.1 0 0 1-11.9-5l-1.4-.8-1.6-1-1.3-1.3a2.4 2.4 0 0 1-.5-1.6 9.5 9.5 0 0 1 2.1.4l2.4 1 2.2 1 1.5.6 4.7 1.7 5.1 1.4a45.9 45.9 0 0 0 5.1 1 28.5 28.5 0 0 0 4.9.4h25.4l1.3-.2 2.5-.3 3.4-.5 3.6-.6 3.5-.7 2.7-.5 6.9-1.4 7.4-1.6c2.5-.6 4.9-1.3 7.3-2.1a50.4 50.4 0 0 0 6.6-2.8l3.9-1.8 3.8-1.6 4-1.4c1.3-.3 2.7-.7 4.2-.9h2.8l1.8-.2h1l1.9-.4 3.4-.7 4.1-.9 4-.9c1.3-.3 2.4-1 3.4-1.2s1.5-.7 1.9-.7h6.5c2.8 0 5.4.5 8 .7s5.2.5 7.9.5a10 10 0 0 0 5-1.2 19.3 19.3 0 0 0 4.6-3.5 39.2 39.2 0 0 0 3.9-5q1.8-2.9 3.3-5.7c.9-1.9 1.8-3.8 2.5-5.6l1.8-4.8c.4-1.2.8-2.4 1.1-3.5s.7-2.2 1-3.2l1.2-2.6a8.6 8.6 0 0 1 1.8-2 7.2 7.2 0 0 1 2.7-1.6 12.7 12.7 0 0 1 3.8-.8h3.1c.7 1.7 1.7.9 2.9 1.3a19.6 19.6 0 0 1 3.6 1.6 10.9 10.9 0 0 1 3 1.8 3.1 3.1 0 0 1 1.3 2.2 2 2 0 0 1-.5 1.4z"/></symbol><symbol id="brachiosaurus" viewBox="0 0 256 256"><path d="M59.7 167.4a31.1 31.1 0 0 0-7.6.8v.2c0 .2.3.5.8.9a12 12 0 0 0 2 1.1l2.6.9 2.8.9 2.4.6 1.5.2h2.1l2.5-.4 2.4-.9a6.1 6.1 0 0 0 1.7-1.4 25.6 25.6 0 0 0-6.4-2.2 29.9 29.9 0 0 0-6.8-.7z"/><path d="M128.3 2a126.5 126.5 0 1 0 126.5 126.5A126.5 126.5 0 0 0 128.3 2zm82.5 69.8v.3a3.7 3.7 0 0 1-.1 1.4 15.2 15.2 0 0 1-.3 2.1l-.3 2.1a6.3 6.3 0 0 1-.3 1.3l-.9 1.8-.6 2-.6 2a14.6 14.6 0 0 1-.7 1.9 21.4 21.4 0 0 1-1.7 3 30.1 30.1 0 0 0-1.6 3.1l-19.8 27.6-.3.5-.2.3-.3.3a1.1 1.1 0 0 0-.4.5l-1.7 2.2-2 2.9a36.2 36.2 0 0 0-2.2 3.2c-.7 1.1-1.4 2.2-2 3.3a25.3 25.3 0 0 0-1.4 2.9 8 8 0 0 0-.5 2.3c0 .3-.2.5-.2.7s.2.5.2.7a.3.3 0 0 0-.3.3c0 .3.1.4.3.4v10.2a2.2 2.2 0 0 1-.3 1l-.3 1.1a6.7 6.7 0 0 0-.6 1.2c-.1.4-.5.8-.5 1.1v1.7a.3.3 0 0 1 0 .4l-.4.8-.7.8-.5.4v.4c0 .1.7.2.8.4s.8.3.8.4v1.4a2.7 2.7 0 0 1 0 .9v.6a23.3 23.3 0 0 1-.6 3.5c-.2 1.1-.5 2.3-.7 3.4s-.5 2.4-.7 3.5a21.6 21.6 0 0 0-.3 3.5q0 3.2.3 6.3a40.9 40.9 0 0 0 1 6.1 35.4 35.4 0 0 0 2.2 5.7 19.4 19.4 0 0 0 3.4 5.2l-1.3.9a8.5 8.5 0 0 1-1.7.6l-1.7.5h-1.9l-1-.3-1.2-.2-1-.2-.7-.2a1.1 1.1 0 0 1-.7-.3l-.7-.4-.3-.8a26.4 26.4 0 0 0 .1-4c0-1.4-.1-2.8-.2-4.2l-.6-4.3c-.2-1.4-.3-2.7-.5-4.1s-.1-.3-.2-.6l-.2-.6c0-1.1.1-2.3.1-3.6s0-2.7-.1-4a25.7 25.7 0 0 0-.6-4 12.8 12.8 0 0 0-1.4-3.4 3.4 3.4 0 0 0-1.5 1.8c-.3.9-.5 1.8-.8 2.7s-.2 1.9-.4 2.9-.9 1.7-.9 2.3v7.6c0 2.8-.2 5.5-.1 8.2a77.2 77.2 0 0 0 .6 8.2l.4.3.8.6.8.7a.9.9 0 0 1 .3.6c0 .2-.3.5-.8.8l-1.8.9-2.1.8-1.2.4h-.2l-4.7-2.6a.4.4 0 0 1-.3-.4v-.5a14.5 14.5 0 0 1 .1-3 28.1 28.1 0 0 0 .1-3c0-1.3-.2-2.6-.3-3.8l-.6-3.7-.6-3.7a25.6 25.6 0 0 1-.3-3.9 32.5 32.5 0 0 1 .2-3.3 24 24 0 0 1 .3-2.8c.2-.9.3-1.8.5-2.8s.4-2 .7-3.2a2.3 2.3 0 0 0-.1-.7c0-.3-.1-.5-.1-.7l-1.8.2-1.9.5-1.9.6a13.9 13.9 0 0 1-1.9.6l-1.4.2h-2l-1.1-.2h-7a44.3 44.3 0 0 0-5.2-.2h-2.5a3.5 3.5 0 0 0-2.3.9v5.1c0 1.7-.1 3.4-.1 5.1l-.3 5.1c-.1 1.7-.2 3.4-.2 5.2v2.5a7.5 7.5 0 0 1 0 1.5v1c0 .6.7 1.1 1.2 1.7l1.4 1.8a16.3 16.3 0 0 1 1.1 1.7 3.2 3.2 0 0 1 .6 1.8v.4a8.8 8.8 0 0 1-4 .4c.1.5 0 .7-.2.8h-2.7l-2.3-.2a5.1 5.1 0 0 1-1.8-.9 2.2 2.2 0 0 1-.8-1.8 5.1 5.1 0 0 1 .2-1.3l.3-1.3.3-1.3a6.6 6.6 0 0 0 .1-1.4 23.6 23.6 0 0 0-.2-3.8c-.2-1.2-.4-2.4-.7-3.6s-.5-2.6-.8-3.8a30.8 30.8 0 0 1-.7-3.9h-.4c-.3 0-.4.7-.6.9s-.2.5-.4.7l-.3.5-1.5 2.2-1.5 2.3a24.4 24.4 0 0 0-1 2.4 8.6 8.6 0 0 0-.5 2.7 3.2 3.2 0 0 0 .4 1.6 5.2 5.2 0 0 0 .7 1.5 6.3 6.3 0 0 0 .7 1.2l.3.6a.8.8 0 0 1-.4.7 2.3 2.3 0 0 1-1 .4 5 5 0 0 1-1.3.3h-4.4l-1.1-.4a2.2 2.2 0 0 1-.7-.9 10.3 10.3 0 0 1-.5-1.6c-.2-.5-.3-1.1-.5-1.6a4.5 4.5 0 0 1-.3-1.6 2.8 2.8 0 0 1 .4-1.5l.9-1.6 1.1-1.6a7 7 0 0 0 .8-1.4c.8-2 1.7-3.9 2.4-5.9s1.7-3.9 2.5-5.9l.5-.7.5-.7a3 3 0 0 0 .4-.8 1.1 1.1 0 0 0 .2-.8q0-.6-.3-.6h-1.3l-8.9 2.4a2.2 2.2 0 0 1-1.3.5l-1.8.4-1.6.6a1.2 1.2 0 0 0-.7 1.1 1.6 1.6 0 0 0 .3.9l.6.6.9.6a1.9 1.9 0 0 1 .7.6l-.4.4-1.3-.8a6.7 6.7 0 0 0-1.4-.9l-1.5-.6-1.5-.2a15.7 15.7 0 0 0-3.7.5l-4 1.1c-1.3.5-2.7.8-4.1 1.2a18.6 18.6 0 0 1-4.2.5l-3.4-.4-4.9-1-5.4-1.8a31.5 31.5 0 0 1-4.9-2.2A13.6 13.6 0 0 1 47 173a4.2 4.2 0 0 1-1.4-2.9 4.7 4.7 0 0 1 1.1-3.3 5.3 5.3 0 0 1 2.7-1.6c1.1-.4 2.3-.1 3.5-.2s2.3.4 3.3.4h4a2.4 2.4 0 0 1 1.3-.3 21.5 21.5 0 0 1 2.3.2 21.3 21.3 0 0 1 2.5.3l2 .2a6 6 0 0 1 1.9.6l1.8.8 1.8.8a6.4 6.4 0 0 0 2 .3 8.9 8.9 0 0 0 4-1.1 30 30 0 0 0 4.1-2.5l3.9-3.1 3.2-2.7 1.9-1.3 1.8-1a10.9 10.9 0 0 0 1.7-1.3 6.1 6.1 0 0 0 1.5-1.7 39.1 39.1 0 0 0 2.6-4.4 33.5 33.5 0 0 1 2.7-4.5 8 8 0 0 1 1.3-1.3l1.5-1 1.7-.9a6.5 6.5 0 0 0 1.6-.9 40.6 40.6 0 0 0 3.6-2.6l3.4-2.9 3.3-3c1.1-1 2.3-1.9 3.5-2.8a17.2 17.2 0 0 1 3.7-2.2 35.4 35.4 0 0 0 3.9-1.9l2.5-1.2 2.5-1.3a14.2 14.2 0 0 1 2.5-1.2 13.4 13.4 0 0 1 2.7-.7l22.3-3.3a9.5 9.5 0 0 0 3.5-1.1 21 21 0 0 0 3.3-2.2 21.5 21.5 0 0 0 3.2-2.9c1-1 2-2.1 2.9-3.2s1.8-2.1 2.6-3.2 1.6-2 2.4-2.8l7.6-8.9.4-.3.5-.5.5-.6.3-.2 2-3.3h.3l.3-.3.4-.2.2-.2.4-.4.4-.4a12.5 12.5 0 0 0 1.2-1.7 14.3 14.3 0 0 0 1.4-2 21.4 21.4 0 0 0 1.3-1.9l1-1.7a16.7 16.7 0 0 0 .8-2 17.2 17.2 0 0 0 .7-2.1 14.3 14.3 0 0 1 .8-2.2c.2-.7 1-1.5 1-2.2v-6.2a5.3 5.3 0 0 0-1.1-3.1 16 16 0 0 0-2.6-2.6 18.3 18.3 0 0 0-3.4-1.8 9.9 9.9 0 0 0-3.2-.6 26.2 26.2 0 0 0-5.7.6 11.5 11.5 0 0 0-5.1 2.7 6.4 6.4 0 0 0-1.5 1.4l-1.6 1.8c-.6.7-1.1 1.4-1.7 2a17 17 0 0 1-1.9 1.9 10.2 10.2 0 0 1-1.8 1.3 4.1 4.1 0 0 1-1.7.5 1.7 1.7 0 0 1-1.2-.5 1.6 1.6 0 0 1-.5-1.1v-.4a4.3 4.3 0 0 0 .1-.5 3.1 3.1 0 0 1 .2-.8c0-.3.1-.5.1-.8a.8.8 0 0 0 .1-.4 4.7 4.7 0 0 0-.3-1.7 3.1 3.1 0 0 0-.6-1.3l-.6-1.2a5.1 5.1 0 0 1-.2-1.3c.4 0 .7 0 .8-.2l.5-.6c.1-.3.3-.5.4-.8a2.8 2.8 0 0 1 .8-.6h2.8a1.3 1.3 0 0 0 1-.4l.7-.7h.4l.2.3c.1.2.1.4.2.5a.4.4 0 0 1 .4-.4l.6-.4 1.1-.6 1.4-.8 1.3-.8 1.1-.7a1.5 1.5 0 0 0 .6-.4l2.1-1.2a4.9 4.9 0 0 1 1.7-.6 10.8 10.8 0 0 1 1.9-.3h6.5l1.4.5a4 4 0 0 0 1.5.3l1.6.4 1.5.4a14.9 14.9 0 0 1 4.6 3.1 17.7 17.7 0 0 1 3.1 4.1 18.2 18.2 0 0 1 1.8 5.1 24.1 24.1 0 0 1 .4 5.4v.7a2.2 2.2 0 0 1 0 .8z"/></symbol><symbol id="velociraptor" viewBox="0 0 256 256"><path d="M128 .3a128 128 0 1 0 128 128A128 128 0 0 0 128 .3zm110.7 116.8h-7.4c-3.1 0-6.2-.2-9.2-.5l-9.2-.9-9.1-1c-3.1-.3-6.2-.5-9.3-.5a151.9 151.9 0 0 0-16.4 1 70.9 70.9 0 0 0-15.9 3.8l-30.8 11.1a2.4 2.4 0 0 0-1.2 1.5 22.9 22.9 0 0 0-.8 2.8l-.6 2.9a8.5 8.5 0 0 1-.6 1.9 2.9 2.9 0 0 0 1.3 1.4l2.5 1.1 2.9 1.2a15.1 15.1 0 0 1 2.8 1.5 9.5 9.5 0 0 1 2.1 1.9 4.1 4.1 0 0 1 .8 2.4 1.7 1.7 0 0 1-.5 1.2 2.7 2.7 0 0 1-1.2.9l-1.6.8-1.6.8-1.3 1a2.4 2.4 0 0 0-.4 1.5 3.5 3.5 0 0 0 .8 2.6 7.7 7.7 0 0 0 1.9 1.6l2.4 1.3a8.7 8.7 0 0 1 2.1 1.7 14.1 14.1 0 0 1 2.1 3.5 27.2 27.2 0 0 1 1.3 3.7 26.6 26.6 0 0 1 .7 3.9c.2 1.3.1 2.7.3 4l1.3 1.3v7.2h.9l1 .2 1 .2.6.2v.9a4.6 4.6 0 0 1-.1 1 5.3 5.3 0 0 1-.3 1.2 3.6 3.6 0 0 1-.7 1 .8.8 0 0 1-.8.3h-5.3c-.2 0-.5-.6-1-.9l-1.5-.8-1.5-.8c-.6-.3-.9-.9-1.2-.9h-6.2a4.8 4.8 0 0 1 .6-2.9 4.3 4.3 0 0 1 1.7-1.6 8.6 8.6 0 0 1 2.1-.7l2.2-.3a5.9 5.9 0 0 0 1.6-.6 1.6 1.6 0 0 0 .7-1.4.4.4 0 0 0-.1-.3v-.3c-.2-.5-.5-1-.8-1.8l-1.3-2.5-1.6-2.5a9.5 9.5 0 0 0-1.5-1.8l-1.3-.8-1.9-.9-1.8-1.1a1.9 1.9 0 0 1-.9-1.1 16.3 16.3 0 0 1-1-2.9 16 16 0 0 0-1.1-3.3 7.8 7.8 0 0 0-1.7-2.6 3.9 3.9 0 0 0-2.9-1 21.3 21.3 0 0 0-6.1.8 23.2 23.2 0 0 0-5.7 2.2 25.6 25.6 0 0 0-5.1 3.5 24.4 24.4 0 0 0-3.9 4.6l-.4.2h-.1l-.2-.2-.2-.3c0-.2-.1-.4-.1-.7s-.1-.4-.2-.6a.4.4 0 0 0-.1-.3h-.3a1.6 1.6 0 0 0-1.1.5l-.9 1.2-.8 1.3a4.5 4.5 0 0 1-.9 1 4.6 4.6 0 0 1-.6-1.6 8.6 8.6 0 0 1-.1-1.7 9.2 9.2 0 0 1 .4-2.9l.9-2.8a13.4 13.4 0 0 0 .9-2.6 15.9 15.9 0 0 0 .4-2.8h-4.9c0-1.7.2-1.8.7-2.4a6.1 6.1 0 0 1 1.6-1.6l2.1-.9 2.2-.3 3 .2 3 .5 2.9.5h5.2a2.4 2.4 0 0 0-1.7-1.4 10.1 10.1 0 0 0-2.5-.4l-2.7-.2c-.9-.1-1.6.1-2.2-.2l-4-2.2h-.2a17.4 17.4 0 0 0-3.2-.1 11.3 11.3 0 0 1-3.2.2 7.3 7.3 0 0 1-3-.7l-2.7-1.4-2.6-1.4a5.5 5.5 0 0 0-2.9-.6v6.1h1.6l1-.4.9-.5a3.5 3.5 0 0 1 .9-.6l.6-.2v2.8l2-.7c0 .1.2.3.2.5s.2.4.2.5a5.6 5.6 0 0 1-1.4 3.9 19 19 0 0 1-3.3 2.9 19.5 19.5 0 0 0-4.6-1.2l-4.8-.7v-7.8a10.4 10.4 0 0 0-1.8.5l-2 1a10.5 10.5 0 0 0-1.9 1.2c-.5.4-1 .8-1 1.2v6.9a9.6 9.6 0 0 0 3-.3 5.3 5.3 0 0 0 1.9-.6l1.2-.6 1.2-.2h.4a2.7 2.7 0 0 0 .3.8c.1.3.3.8.4 1.2a9.3 9.3 0 0 1 .4 1.3 5.8 5.8 0 0 1 .2 1 4.6 4.6 0 0 1-.4 1.9 5.4 5.4 0 0 1-1.1 1.8 5 5 0 0 1-1.5 1.4 4.5 4.5 0 0 1-1.9.5h-1l-3-.5a22 22 0 0 1-3.7-.7 14.2 14.2 0 0 1-3.3-1.2 2.9 2.9 0 0 1-1.4-2.2v-11.9l.9-.9 1.9-1.6 2.4-2.2 2.4-2.5a21.1 21.1 0 0 0 1.8-2.7 5.4 5.4 0 0 0 .7-2.6 3.9 3.9 0 0 0-1.2-2.8 9.5 9.5 0 0 0-2.8-2l-3.3-1.5-2.5-.9-1.3-9.1-.6-2.7a11.8 11.8 0 0 0-1.2-2.8 6.2 6.2 0 0 0-1.7-2.2 4.4 4.4 0 0 0-2.7-.9 13.8 13.8 0 0 0-3.7.5 13 13 0 0 0-3.2 1.5l-1.7 1.1-2.5 1.5-3 1.7c-1 .7-2 1.2-3 1.8a29.4 29.4 0 0 0-2.6 1.7c-.7.4-1.3 1.1-1.6 1.1h-1l-1.8-.3-2.1-.3a4.1 4.1 0 0 1-1.3-.8c-.5-.3-.4-.8-.4-1.4v-1.9c0-.6-.2-.9.1-.9h1.5v-.4c.1-.3.1-.6.2-.9s.1-.6.2-.8v-.5a2.4 2.4 0 0 0-.8-.9l-.9-.5-.7-.6a2.3 2.3 0 0 1-.3-1.3 2.7 2.7 0 0 1 .3-1.2 3.9 3.9 0 0 1 .6-1.1c.3-.4.3-.7.7-.9l.8-.4v.8a4.7 4.7 0 0 0 .6 1.5c.1.5.6.7 1.2.7a1.9 1.9 0 0 0 1.1-.4 5.4 5.4 0 0 0 .9-1.2 11.1 11.1 0 0 0 .7-1.6c.1-.5.2.3.2-1.4H20.8a1.5 1.5 0 0 1-.8-.5 10.5 10.5 0 0 1-1.1-.7 3.6 3.6 0 0 1-.9-.8 1.3 1.3 0 0 1-.4-1 4.2 4.2 0 0 1 1.1-3.2 6.8 6.8 0 0 1 2.6-1.8 11.9 11.9 0 0 1 3.2-1l2.9-.9 2.2-.9 3.4-1.6a25.3 25.3 0 0 0 3.3-1.6 11 11 0 0 1 2.2-1h13.7a7.1 7.1 0 0 1 3.9 1 12.6 12.6 0 0 1 3.2 2.5 20.4 20.4 0 0 1 2.5 3.3l2.3 3.3a15.1 15.1 0 0 0 2.3 2.6 3.6 3.6 0 0 0 2.5 1c.4 0 .7-.1.8-.4a1.1 1.1 0 0 1 .9-.4 4 4 0 0 1 1.5.3l1.5.8 1.5.7a4.5 4.5 0 0 0 1.6.3l4.2-.2 4.1-.5 4.1-.5 4.2-.2a57.4 57.4 0 0 1 7.3.4 39.9 39.9 0 0 1 7.3 1.6l5.1 2 5.1 2.2a47.2 47.2 0 0 0 5.3 1.8 25 25 0 0 0 5.4.7h2.6l13-2.7 12.9-2.3c4.3-.6 8.7-1.1 13-1.5s8.8-.6 13.2-.6h8.9c1.9.1 3.6.7 5.1.9l36.7 7.3h11.7c-.8 0-1.8 1.1-3.1 1.4a14 14 0 0 1-4.1.1z"/></symbol></svg>